<svg viewBox="0 0 77.6 12.3" xmlns="http://www.w3.org/2000/svg" xmlns:xlink="http://www.w3.org/1999/xlink">
  <desc>© Jesper Karlsson / Elicitation AB. Source: https://github.com/safegrade/safegrade-brand-assets</desc>
  <path d="M 20.537109 0 C 19.882443 0 19.362516 0.10202083 18.978516 0.3046875 C 18.594516 0.49735417 18.324016 0.82940104 18.166016 1.3027344 C 18.008016 1.7660677 17.929688 2.3985521 17.929688 3.1992188 L 17.929688 3.5898438 L 17.183594 3.5898438 L 17.183594 5.7226562 L 17.929688 5.7226562 L 17.929688 12.105469 L 20.519531 12.107422 L 20.519531 5.7226562 L 22.400391 5.7226562 L 22.400391 3.5898438 L 20.519531 3.5898438 L 20.519531 3.1484375 C 20.519531 2.8777708 20.548802 2.6701042 20.605469 2.5234375 C 20.661469 2.3761042 20.756578 2.2685052 20.892578 2.2011719 C 21.039245 2.1331719 21.232083 2.0996094 21.46875 2.0996094 C 21.60475 2.0996094 21.773896 2.103901 21.976562 2.1152344 L 22.535156 2.1152344 L 22.552734 0.16992188 C 22.416734 0.14725521 22.229521 0.12422917 21.992188 0.1015625 C 21.755521 0.0675625 21.508047 0.044536458 21.248047 0.033203125 C 20.988714 0.011203125 20.751776 0 20.537109 0 z M 74.978516 0.0703125 C 74.225849 0.0703125 73.608953 0.31096875 73.126953 0.79296875 C 72.644286 1.2636354 72.402344 1.8805312 72.402344 2.6445312 C 72.402344 3.4211979 72.644286 4.045625 73.126953 4.515625 C 73.608286 4.9742917 74.225182 5.203125 74.978516 5.203125 C 75.743182 5.203125 76.365656 4.9742917 76.847656 4.515625 C 77.330323 4.045625 77.572266 3.4211979 77.572266 2.6445312 C 77.572266 1.8805312 77.331609 1.2636354 76.849609 0.79296875 C 76.366943 0.31096875 75.742516 0.0703125 74.978516 0.0703125 z M 60.8125 0.203125 L 60.8125 3.5546875 C 60.677167 3.5326875 60.501776 3.5096615 60.287109 3.4863281 C 60.084443 3.4643281 59.876776 3.4488333 59.662109 3.4375 C 59.458776 3.4148333 59.277141 3.4023438 59.119141 3.4023438 C 58.238474 3.4023438 57.528328 3.5777344 56.986328 3.9277344 C 56.456328 4.2777344 56.067026 4.7851719 55.818359 5.4511719 C 55.581026 6.1171719 55.462891 6.9312917 55.462891 7.890625 C 55.462891 8.5232917 55.501411 9.0810729 55.580078 9.5664062 C 55.670745 10.05174 55.80137 10.470313 55.970703 10.820312 C 56.140036 11.158312 56.34899 11.441302 56.597656 11.667969 C 56.85699 11.881969 57.161719 12.039292 57.511719 12.140625 C 57.861719 12.253958 58.250354 12.310547 58.679688 12.310547 L 58.679688 12.308594 C 58.939688 12.308594 59.198984 12.268786 59.458984 12.189453 C 59.729651 12.12212 59.984036 12.037547 60.220703 11.935547 C 60.46937 11.834214 60.672078 11.738437 60.830078 11.648438 L 60.847656 12.105469 L 63.404297 12.105469 L 63.404297 0.203125 L 60.8125 0.203125 z M 4.1308594 0.37109375 C 3.2841927 0.37109375 2.5516406 0.47869271 1.9316406 0.69335938 C 1.3103073 0.90802604 0.82890104 1.2762552 0.49023438 1.7949219 C 0.16290104 2.3142552 0 3.0368906 0 3.9628906 C 0 4.5268906 0.067125 5.0113021 0.203125 5.4179688 C 0.33845833 5.8133021 0.55861458 6.1473021 0.86328125 6.4179688 C 1.1679479 6.6779687 1.5634948 6.8912135 2.0488281 7.0605469 C 2.5454948 7.2298802 3.14375 7.3779531 3.84375 7.5019531 C 4.3630833 7.5919531 4.7586302 7.6870625 5.0292969 7.7890625 C 5.3119635 7.8790625 5.5041354 7.9978646 5.6054688 8.1445312 C 5.7188021 8.2918646 5.7753906 8.4883281 5.7753906 8.7363281 C 5.7753906 9.0409948 5.7188021 9.2904219 5.6054688 9.4824219 C 5.4928021 9.6744219 5.3111667 9.8205417 5.0625 9.921875 C 4.8258333 10.011875 4.5168125 10.056641 4.1328125 10.056641 C 3.7828125 10.056641 3.3704844 10.041146 2.8964844 10.007812 L 1.4726562 9.8710938 C 0.99865625 9.8144271 0.58632812 9.7640833 0.23632812 9.71875 L 0.0859375 11.802734 C 0.42460417 11.870734 0.83497917 11.942818 1.3203125 12.021484 C 1.8056458 12.100818 2.3150365 12.168609 2.8457031 12.224609 C 3.3763698 12.281276 3.8732708 12.310547 4.3359375 12.310547 C 5.2166042 12.310547 5.9609792 12.186167 6.5703125 11.9375 C 7.1916458 11.6895 7.6605625 11.287708 7.9765625 10.734375 C 8.3038958 10.181042 8.4667969 9.4534479 8.4667969 8.5507812 C 8.4667969 7.9634479 8.3990052 7.4790365 8.2636719 7.0957031 C 8.1390052 6.7117031 7.9250937 6.3994427 7.6210938 6.1621094 C 7.3270938 5.9141094 6.9371719 5.7051562 6.4511719 5.5351562 C 5.9778385 5.3664896 5.3914063 5.204875 4.6914062 5.046875 C 4.1720729 4.9335417 3.7659896 4.8259427 3.4726562 4.7246094 C 3.1899896 4.6226094 2.9853281 4.4982292 2.8613281 4.3515625 C 2.7486615 4.1935625 2.6933594 3.9734062 2.6933594 3.6914062 C 2.6933594 3.4427396 2.7493281 3.2380781 2.8613281 3.0800781 C 2.9859948 2.9220781 3.1732083 2.8095208 3.421875 2.7421875 C 3.669875 2.6635208 3.9788958 2.625 4.3515625 2.625 C 4.6795625 2.625 5.0639062 2.6424479 5.5039062 2.6757812 C 5.9552396 2.6984479 6.4060885 2.7320104 6.8574219 2.7773438 C 7.3094219 2.8106771 7.7062552 2.8491979 8.0449219 2.8945312 L 8.1621094 0.77734375 C 7.8121094 0.71001042 7.3997812 0.64846354 6.9257812 0.59179688 C 6.4517813 0.53513021 5.9673698 0.48411979 5.4707031 0.43945312 C 4.9740365 0.39411979 4.5268594 0.37109375 4.1308594 0.37109375 z M 36.552734 0.38867188 C 35.639401 0.38867187 34.865755 0.50680729 34.232422 0.74414062 C 33.601089 0.96947396 33.08674 1.3252135 32.691406 1.8105469 C 32.307406 2.2852135 32.030661 2.90025 31.861328 3.65625 C 31.691995 4.4015833 31.607422 5.2996094 31.607422 6.3496094 C 31.607422 7.3316094 31.681458 8.1947865 31.828125 8.9394531 C 31.974792 9.6734531 32.22851 10.28849 32.589844 10.785156 C 32.96251 11.281823 33.465656 11.65563 34.097656 11.904297 C 34.741656 12.140964 35.565646 12.259766 36.570312 12.259766 C 36.829646 12.259766 37.14062 12.241031 37.501953 12.207031 C 37.863286 12.185031 38.235141 12.152755 38.619141 12.107422 C 39.002474 12.062089 39.374995 12.009792 39.736328 11.953125 C 40.097661 11.896458 40.41488 11.851693 40.685547 11.818359 L 40.685547 5.7578125 L 36.960938 5.7578125 L 36.960938 7.7558594 L 38.144531 7.7558594 L 38.144531 9.9238281 C 38.020531 9.9344948 37.872458 9.9499896 37.703125 9.9726562 L 37.179688 10.007812 C 37.010354 10.019146 36.851745 10.023438 36.705078 10.023438 C 36.050411 10.023438 35.547266 9.894099 35.197266 9.6347656 C 34.858599 9.3634323 34.627906 8.9560625 34.503906 8.4140625 C 34.379906 7.8727292 34.318359 7.1856094 34.318359 6.3496094 C 34.318359 5.6949427 34.346344 5.1364948 34.402344 4.6738281 C 34.470344 4.2111615 34.588479 3.8323958 34.757812 3.5390625 C 34.927146 3.2450625 35.176573 3.0298646 35.503906 2.8945312 C 35.83124 2.7478646 36.264641 2.6757812 36.806641 2.6757812 C 37.179307 2.6757812 37.59788 2.6925625 38.060547 2.7265625 C 38.523214 2.7605625 38.980307 2.7990833 39.431641 2.84375 C 39.894974 2.87775 40.289854 2.9175573 40.617188 2.9628906 L 40.634766 0.89648438 C 40.318099 0.81715104 39.92751 0.73882292 39.464844 0.66015625 C 39.002177 0.58082292 38.511521 0.51927604 37.992188 0.47460938 C 37.484187 0.41794271 37.004734 0.38867188 36.552734 0.38867188 z M 74.996094 1.5175781 C 75.325427 1.5175781 75.589062 1.622651 75.789062 1.8339844 C 76.001063 2.0459844 76.107422 2.3158646 76.107422 2.6445312 C 76.107422 2.9738646 76.001063 3.2450312 75.789062 3.4570312 C 75.589062 3.6683646 75.325427 3.7734375 74.996094 3.7734375 C 74.655427 3.7734375 74.385547 3.6683646 74.185547 3.4570312 C 73.997547 3.2450312 73.902344 2.9738646 73.902344 2.6445312 C 73.902344 2.3158646 73.997547 2.0459844 74.185547 1.8339844 C 74.385547 1.622651 74.655427 1.5175781 74.996094 1.5175781 z M 46.777344 3.3867188 C 46.495344 3.4207188 46.203104 3.5052917 45.898438 3.640625 C 45.593771 3.7759583 45.305823 3.9283229 45.035156 4.0976562 C 44.763823 4.2563229 44.538089 4.4080208 44.357422 4.5546875 L 44.357422 3.5898438 L 41.767578 3.5898438 L 41.767578 12.105469 L 44.357422 12.107422 L 44.357422 6.7050781 C 44.549422 6.6037448 44.781401 6.4961458 45.052734 6.3828125 C 45.323401 6.2588125 45.609396 6.1525 45.914062 6.0625 C 46.218729 5.9605 46.506677 5.8914219 46.777344 5.8574219 L 46.777344 3.3867188 z M 12.96875 3.4023438 C 12.56275 3.4023437 12.128682 3.4316146 11.666016 3.4882812 C 11.202682 3.5336146 10.756792 3.5951615 10.328125 3.6738281 C 9.910125 3.7418281 9.5488073 3.8158646 9.2441406 3.8945312 L 9.328125 5.6894531 C 9.6214583 5.6554531 9.9722396 5.621224 10.378906 5.5878906 C 10.784906 5.5538906 11.197234 5.5265729 11.615234 5.5039062 C 12.033234 5.4812396 12.405755 5.46875 12.732422 5.46875 C 13.094422 5.46875 13.364922 5.5427865 13.544922 5.6894531 C 13.736922 5.8247865 13.832031 6.0610573 13.832031 6.4003906 L 13.832031 6.8417969 L 11.9375 6.9921875 C 11.282167 7.0261875 10.722432 7.1219635 10.259766 7.2792969 C 9.797099 7.4379635 9.442026 7.6992135 9.1933594 8.0605469 C 8.9566927 8.4105469 8.8378906 8.9117396 8.8378906 9.5664062 C 8.8378906 10.49174 9.0642917 11.180813 9.515625 11.632812 C 9.9782917 12.084146 10.671656 12.310547 11.597656 12.310547 C 11.95899 12.310547 12.309771 12.275031 12.648438 12.207031 C 12.998438 12.139698 13.319948 12.055125 13.613281 11.953125 C 13.907281 11.851792 14.144219 11.762927 14.324219 11.683594 C 14.426219 11.79626 14.578583 11.908151 14.78125 12.021484 C 14.995917 12.123484 15.249635 12.191276 15.542969 12.224609 C 15.656302 12.235943 15.797464 12.242188 15.966797 12.242188 C 16.13613 12.253521 16.317766 12.247276 16.509766 12.224609 C 16.701099 12.213276 16.880781 12.20274 17.050781 12.191406 L 17.101562 10.464844 C 16.943563 10.430844 16.79549 10.379833 16.660156 10.3125 C 16.53549 10.233167 16.457161 10.125568 16.423828 9.9902344 L 16.423828 6.2636719 C 16.423828 5.5303385 16.288911 4.9613542 16.017578 4.5546875 C 15.747578 4.1373542 15.352031 3.8431615 14.832031 3.6738281 C 14.324031 3.4931615 13.70275 3.4023438 12.96875 3.4023438 z M 26.564453 3.4023438 C 25.672453 3.4023438 24.933036 3.5714896 24.345703 3.9101562 C 23.759036 4.2374896 23.313146 4.7406354 23.007812 5.4179688 C 22.714479 6.0846354 22.566406 6.9303646 22.566406 7.9570312 C 22.566406 8.9390312 22.686495 9.753151 22.923828 10.396484 C 23.172495 11.040484 23.578578 11.519938 24.142578 11.835938 C 24.717911 12.151937 25.485313 12.310547 26.445312 12.310547 C 26.874646 12.310547 27.326781 12.287521 27.800781 12.242188 C 28.274781 12.197521 28.731208 12.14651 29.171875 12.089844 C 29.611875 12.021844 29.978151 11.95901 30.271484 11.902344 L 30.220703 10.142578 C 29.916036 10.164578 29.54976 10.188271 29.121094 10.210938 L 27.816406 10.277344 C 27.387073 10.288677 26.998437 10.294922 26.648438 10.294922 C 26.107104 10.294922 25.722094 10.165583 25.496094 9.90625 C 25.281427 9.6349167 25.169536 9.2275469 25.158203 8.6855469 L 30.373047 8.6855469 L 30.509766 7.3496094 C 30.509766 5.9836094 30.176432 4.9842292 29.509766 4.3515625 C 28.855099 3.7195625 27.873786 3.4023438 26.564453 3.4023438 z M 51.027344 3.4023438 C 50.621344 3.4023437 50.187276 3.4316146 49.724609 3.4882812 C 49.261276 3.5336146 48.815385 3.5951615 48.386719 3.6738281 C 47.968719 3.7418281 47.607401 3.8158646 47.302734 3.8945312 L 47.386719 5.6894531 C 47.680052 5.6554531 48.030833 5.621224 48.4375 5.5878906 C 48.8435 5.5538906 49.255828 5.5265729 49.673828 5.5039062 C 50.091828 5.4812396 50.462396 5.46875 50.789062 5.46875 C 51.151063 5.46875 51.423516 5.5427865 51.603516 5.6894531 C 51.795516 5.8247865 51.890625 6.0610573 51.890625 6.4003906 L 51.890625 6.8417969 L 49.994141 6.9921875 C 49.338807 7.0261875 48.781026 7.1219635 48.318359 7.2792969 C 47.855693 7.4379635 47.50062 7.6992135 47.251953 8.0605469 C 47.015286 8.4105469 46.896484 8.9117396 46.896484 9.5664062 C 46.896484 10.49174 47.120932 11.180813 47.572266 11.632812 C 48.034932 12.084146 48.73025 12.310547 49.65625 12.310547 C 50.017583 12.310547 50.366411 12.275031 50.705078 12.207031 C 51.055078 12.139698 51.378542 12.055125 51.671875 11.953125 C 51.965875 11.851792 52.202813 11.762927 52.382812 11.683594 C 52.484812 11.79626 52.637177 11.908151 52.839844 12.021484 C 53.05451 12.123484 53.308229 12.191276 53.601562 12.224609 C 53.714896 12.235943 53.856057 12.242188 54.025391 12.242188 C 54.194724 12.253521 54.374406 12.247276 54.566406 12.224609 C 54.75774 12.213276 54.939375 12.20274 55.109375 12.191406 L 55.158203 10.464844 C 55.000203 10.430844 54.854083 10.379833 54.71875 10.3125 C 54.594083 10.233167 54.515755 10.125568 54.482422 9.9902344 L 54.482422 6.2636719 C 54.482422 5.5303385 54.345552 4.9613542 54.074219 4.5546875 C 53.804219 4.1373542 53.410625 3.8431615 52.890625 3.6738281 C 52.382625 3.4931615 51.761344 3.4023438 51.027344 3.4023438 z M 68.261719 3.4023438 C 67.369719 3.4023438 66.631589 3.5714896 66.044922 3.9101562 C 65.458255 4.2374896 65.010411 4.7406354 64.705078 5.4179688 C 64.411745 6.0846354 64.265625 6.9303646 64.265625 7.9570312 C 64.265625 8.9390312 64.384427 9.753151 64.621094 10.396484 C 64.86976 11.040484 65.27713 11.519938 65.841797 11.835938 C 66.41713 12.151937 67.184531 12.310547 68.144531 12.310547 C 68.573865 12.310547 69.024714 12.287521 69.498047 12.242188 C 69.972714 12.197521 70.430427 12.14651 70.871094 12.089844 C 71.311094 12.021844 71.67737 11.95901 71.970703 11.902344 L 71.919922 10.142578 C 71.615922 10.164578 71.247693 10.188271 70.818359 10.210938 L 69.515625 10.277344 C 69.086958 10.288677 68.697656 10.294922 68.347656 10.294922 C 67.805656 10.294922 67.420646 10.165583 67.195312 9.90625 C 66.980646 9.6349167 66.868755 9.2275469 66.857422 8.6855469 L 72.072266 8.6855469 L 72.207031 7.3496094 C 72.207031 5.9836094 71.874984 4.9842292 71.208984 4.3515625 C 70.554318 3.7195625 69.571719 3.4023438 68.261719 3.4023438 z M 26.564453 5.3007812 C 27.038453 5.3007812 27.38299 5.4344115 27.597656 5.7050781 C 27.811656 5.9644115 27.917969 6.4339948 27.917969 7.1113281 L 25.140625 7.1113281 C 25.151958 6.6713281 25.208547 6.3225 25.310547 6.0625 C 25.41188 5.7918333 25.564245 5.5996615 25.767578 5.4863281 C 25.982245 5.3623281 26.248453 5.3007812 26.564453 5.3007812 z M 68.261719 5.3007812 C 68.736385 5.3007812 69.080922 5.4344115 69.294922 5.7050781 C 69.509589 5.9644115 69.617188 6.4339948 69.617188 7.1113281 L 66.839844 7.1113281 C 66.851844 6.6713281 66.908432 6.3225 67.009766 6.0625 C 67.111766 5.7918333 67.26413 5.5996615 67.466797 5.4863281 C 67.681464 5.3623281 67.945719 5.3007812 68.261719 5.3007812 z M 59.576172 5.5371094 C 59.700172 5.5371094 59.843286 5.5433542 60.001953 5.5546875 C 60.159953 5.5660208 60.310365 5.5828021 60.457031 5.6054688 C 60.603698 5.6161354 60.723786 5.6316302 60.814453 5.6542969 L 60.814453 9.8378906 C 60.712453 9.8718906 60.581828 9.9166562 60.423828 9.9726562 C 60.265161 10.01799 60.096016 10.064042 59.916016 10.109375 C 59.735349 10.143375 59.560625 10.160156 59.390625 10.160156 L 59.390625 10.158203 C 59.187292 10.158203 59.001365 10.119682 58.832031 10.041016 C 58.674031 9.9616823 58.538448 9.8373021 58.425781 9.6679688 C 58.312448 9.4873021 58.227875 9.2566094 58.171875 8.9746094 C 58.115208 8.681276 58.087891 8.3199583 58.087891 7.890625 C 58.087891 7.3939583 58.125745 6.9753854 58.205078 6.6367188 C 58.295078 6.2867187 58.447443 6.0155521 58.662109 5.8242188 C 58.876776 5.6322187 59.181505 5.5371094 59.576172 5.5371094 z M 13.832031 8.3808594 L 13.832031 10.058594 C 13.718698 10.103927 13.572578 10.154937 13.392578 10.210938 C 13.211911 10.267604 13.01974 10.317948 12.816406 10.363281 C 12.625053 10.407797 12.433541 10.429538 12.242188 10.429688 C 12.242188 10.429688 12.240234 10.429688 12.240234 10.429688 C 11.969932 10.429259 11.767803 10.344685 11.632812 10.175781 C 11.497479 10.006448 11.429687 9.7800469 11.429688 9.4980469 C 11.429687 9.2047135 11.501771 8.9802656 11.648438 8.8222656 C 11.795104 8.6522656 12.02775 8.5509115 12.34375 8.5175781 L 13.832031 8.3808594 z M 51.890625 8.3808594 L 51.890625 10.058594 C 51.777292 10.103927 51.631172 10.154937 51.451172 10.210938 C 51.270505 10.267604 51.078333 10.317948 50.875 10.363281 C 50.683647 10.407797 50.492134 10.429538 50.300781 10.429688 C 50.300781 10.429688 50.298828 10.429688 50.298828 10.429688 C 50.028526 10.429259 49.824444 10.344685 49.689453 10.175781 C 49.55412 10.006448 49.486328 9.7800469 49.486328 9.4980469 C 49.486328 9.2047135 49.560365 8.9802656 49.707031 8.8222656 C 49.853698 8.6522656 50.084391 8.5509115 50.400391 8.5175781 L 51.890625 8.3808594 z ">
  </path>
</svg>
